<mxfile host="app.diagrams.net" modified="2022-10-03T10:54:20.931Z" agent="5.0 (Windows NT 10.0; Win64; x64) AppleWebKit/537.36 (KHTML, like Gecko) Chrome/105.0.0.0 Safari/537.36" etag="whLohMEvgAKtGx4XNg7u" version="20.3.7" type="github">
  <diagram id="_x3wEIcpyEA3F0cznZlo" name="페이지-1">
    <mxGraphModel dx="1422" dy="754" grid="0" gridSize="10" guides="1" tooltips="1" connect="1" arrows="1" fold="1" page="1" pageScale="1" pageWidth="1654" pageHeight="2336" math="0" shadow="0">
      <root>
        <mxCell id="0" />
        <mxCell id="1" parent="0" />
        <mxCell id="hlDAkTI5Rvjaobr0PhCq-4" value="Actor" style="shape=umlActor;verticalLabelPosition=bottom;verticalAlign=top;html=1;outlineConnect=0;fontSize=13;" vertex="1" parent="1">
          <mxGeometry x="159" y="540" width="30" height="60" as="geometry" />
        </mxCell>
        <mxCell id="hlDAkTI5Rvjaobr0PhCq-5" value="" style="endArrow=classic;html=1;rounded=0;fontSize=13;" edge="1" parent="1">
          <mxGeometry width="50" height="50" relative="1" as="geometry">
            <mxPoint x="226" y="575.5" as="sourcePoint" />
            <mxPoint x="393" y="576" as="targetPoint" />
          </mxGeometry>
        </mxCell>
        <mxCell id="hlDAkTI5Rvjaobr0PhCq-6" value="1. create order" style="text;html=1;strokeColor=none;fillColor=none;align=center;verticalAlign=middle;whiteSpace=wrap;rounded=0;fontSize=13;" vertex="1" parent="1">
          <mxGeometry x="264" y="555" width="100" height="13" as="geometry" />
        </mxCell>
        <mxCell id="hlDAkTI5Rvjaobr0PhCq-8" value="Booking-Service&lt;br&gt;(Order)" style="rounded=0;whiteSpace=wrap;html=1;fontSize=13;" vertex="1" parent="1">
          <mxGeometry x="360" y="467" width="120" height="60" as="geometry" />
        </mxCell>
        <mxCell id="hlDAkTI5Rvjaobr0PhCq-9" value="Auth-Service" style="rounded=0;whiteSpace=wrap;html=1;fontSize=13;" vertex="1" parent="1">
          <mxGeometry x="564" y="467" width="120" height="60" as="geometry" />
        </mxCell>
        <mxCell id="hlDAkTI5Rvjaobr0PhCq-10" value="Member-Service" style="rounded=0;whiteSpace=wrap;html=1;fontSize=13;" vertex="1" parent="1">
          <mxGeometry x="768" y="467" width="120" height="60" as="geometry" />
        </mxCell>
        <mxCell id="hlDAkTI5Rvjaobr0PhCq-12" value="" style="endArrow=none;html=1;rounded=0;fontSize=13;startArrow=none;" edge="1" parent="1" source="hlDAkTI5Rvjaobr0PhCq-16">
          <mxGeometry width="50" height="50" relative="1" as="geometry">
            <mxPoint x="427" y="1010" as="sourcePoint" />
            <mxPoint x="420" y="527" as="targetPoint" />
          </mxGeometry>
        </mxCell>
        <mxCell id="hlDAkTI5Rvjaobr0PhCq-13" value="" style="endArrow=none;html=1;rounded=0;fontSize=13;" edge="1" parent="1">
          <mxGeometry width="50" height="50" relative="1" as="geometry">
            <mxPoint x="625" y="1010" as="sourcePoint" />
            <mxPoint x="623" y="527" as="targetPoint" />
          </mxGeometry>
        </mxCell>
        <mxCell id="hlDAkTI5Rvjaobr0PhCq-14" value="" style="endArrow=none;html=1;rounded=0;fontSize=13;" edge="1" parent="1">
          <mxGeometry width="50" height="50" relative="1" as="geometry">
            <mxPoint x="839" y="1010" as="sourcePoint" />
            <mxPoint x="832" y="527" as="targetPoint" />
          </mxGeometry>
        </mxCell>
        <mxCell id="hlDAkTI5Rvjaobr0PhCq-16" value="" style="rounded=0;whiteSpace=wrap;html=1;fontSize=13;" vertex="1" parent="1">
          <mxGeometry x="413" y="550" width="14" height="343" as="geometry" />
        </mxCell>
        <mxCell id="hlDAkTI5Rvjaobr0PhCq-17" value="" style="endArrow=none;html=1;rounded=0;fontSize=13;" edge="1" parent="1" target="hlDAkTI5Rvjaobr0PhCq-16">
          <mxGeometry width="50" height="50" relative="1" as="geometry">
            <mxPoint x="420" y="1012" as="sourcePoint" />
            <mxPoint x="420" y="527" as="targetPoint" />
          </mxGeometry>
        </mxCell>
        <mxCell id="hlDAkTI5Rvjaobr0PhCq-19" value="" style="endArrow=classic;html=1;rounded=0;fontSize=13;" edge="1" parent="1">
          <mxGeometry width="50" height="50" relative="1" as="geometry">
            <mxPoint x="445" y="576" as="sourcePoint" />
            <mxPoint x="602" y="576" as="targetPoint" />
          </mxGeometry>
        </mxCell>
        <mxCell id="hlDAkTI5Rvjaobr0PhCq-23" value="2. Token Validation" style="text;html=1;strokeColor=none;fillColor=none;align=center;verticalAlign=middle;whiteSpace=wrap;rounded=0;fontSize=13;" vertex="1" parent="1">
          <mxGeometry x="435" y="557" width="175" height="13" as="geometry" />
        </mxCell>
        <mxCell id="hlDAkTI5Rvjaobr0PhCq-24" value="Authorization: expedia-AK token" style="text;html=1;strokeColor=none;fillColor=none;align=center;verticalAlign=middle;whiteSpace=wrap;rounded=0;fontSize=13;" vertex="1" parent="1">
          <mxGeometry x="202" y="584" width="217" height="13" as="geometry" />
        </mxCell>
        <mxCell id="hlDAkTI5Rvjaobr0PhCq-25" value="" style="rounded=0;whiteSpace=wrap;html=1;fontSize=13;" vertex="1" parent="1">
          <mxGeometry x="617" y="550" width="14" height="231" as="geometry" />
        </mxCell>
        <mxCell id="hlDAkTI5Rvjaobr0PhCq-27" value="" style="rounded=0;whiteSpace=wrap;html=1;fontSize=13;" vertex="1" parent="1">
          <mxGeometry x="610" y="581" width="30" height="99" as="geometry" />
        </mxCell>
        <mxCell id="hlDAkTI5Rvjaobr0PhCq-28" value="AccessToken + RefreshToken" style="text;html=1;strokeColor=none;fillColor=none;align=center;verticalAlign=middle;whiteSpace=wrap;rounded=0;fontSize=13;" vertex="1" parent="1">
          <mxGeometry x="435" y="584" width="175" height="13" as="geometry" />
        </mxCell>
        <mxCell id="hlDAkTI5Rvjaobr0PhCq-30" value="Redis" style="ellipse;whiteSpace=wrap;html=1;aspect=fixed;fontSize=13;" vertex="1" parent="1">
          <mxGeometry x="993" y="577" width="109" height="109" as="geometry" />
        </mxCell>
        <mxCell id="hlDAkTI5Rvjaobr0PhCq-31" value="Booking-Service-Database" style="ellipse;whiteSpace=wrap;html=1;aspect=fixed;fontSize=13;direction=south;" vertex="1" parent="1">
          <mxGeometry x="99" y="772" width="109" height="109" as="geometry" />
        </mxCell>
        <mxCell id="hlDAkTI5Rvjaobr0PhCq-35" value="" style="endArrow=classic;html=1;rounded=0;fontSize=13;" edge="1" parent="1">
          <mxGeometry width="50" height="50" relative="1" as="geometry">
            <mxPoint x="651" y="604" as="sourcePoint" />
            <mxPoint x="954" y="604.5" as="targetPoint" />
          </mxGeometry>
        </mxCell>
        <mxCell id="hlDAkTI5Rvjaobr0PhCq-37" value="" style="endArrow=classic;html=1;rounded=0;fontSize=13;" edge="1" parent="1">
          <mxGeometry width="50" height="50" relative="1" as="geometry">
            <mxPoint x="606" y="741.5" as="sourcePoint" />
            <mxPoint x="444" y="741.5" as="targetPoint" />
          </mxGeometry>
        </mxCell>
        <mxCell id="hlDAkTI5Rvjaobr0PhCq-38" value="3. TokenResponse" style="text;html=1;strokeColor=none;fillColor=none;align=center;verticalAlign=middle;whiteSpace=wrap;rounded=0;fontSize=13;" vertex="1" parent="1">
          <mxGeometry x="438" y="723" width="175" height="13" as="geometry" />
        </mxCell>
        <mxCell id="hlDAkTI5Rvjaobr0PhCq-40" value="2-1) AccessToken 이 만료되었으면 RefreshToken 을 사용하여 Redis 에서 조회" style="text;html=1;strokeColor=none;fillColor=none;align=center;verticalAlign=middle;whiteSpace=wrap;rounded=0;fontSize=13;" vertex="1" parent="1">
          <mxGeometry x="658" y="568" width="277" height="13" as="geometry" />
        </mxCell>
        <mxCell id="hlDAkTI5Rvjaobr0PhCq-41" value="" style="rounded=0;whiteSpace=wrap;html=1;fontSize=13;" vertex="1" parent="1">
          <mxGeometry x="405" y="566.5" width="30" height="139.5" as="geometry" />
        </mxCell>
        <mxCell id="hlDAkTI5Rvjaobr0PhCq-42" value="" style="rounded=0;whiteSpace=wrap;html=1;fontSize=13;" vertex="1" parent="1">
          <mxGeometry x="405" y="754" width="30" height="41.5" as="geometry" />
        </mxCell>
        <mxCell id="hlDAkTI5Rvjaobr0PhCq-43" value="" style="endArrow=classic;html=1;rounded=0;fontSize=13;" edge="1" parent="1">
          <mxGeometry width="50" height="50" relative="1" as="geometry">
            <mxPoint x="405" y="825.25" as="sourcePoint" />
            <mxPoint x="232" y="825.25" as="targetPoint" />
          </mxGeometry>
        </mxCell>
        <mxCell id="hlDAkTI5Rvjaobr0PhCq-44" value="4. 주문 정보 저장" style="text;html=1;strokeColor=none;fillColor=none;align=center;verticalAlign=middle;whiteSpace=wrap;rounded=0;fontSize=13;" vertex="1" parent="1">
          <mxGeometry x="254" y="804" width="135" height="13" as="geometry" />
        </mxCell>
        <mxCell id="hlDAkTI5Rvjaobr0PhCq-45" value="Actor" style="shape=umlActor;verticalLabelPosition=bottom;verticalAlign=top;html=1;outlineConnect=0;fontSize=13;" vertex="1" parent="1">
          <mxGeometry x="285" y="1192" width="30" height="60" as="geometry" />
        </mxCell>
        <mxCell id="hlDAkTI5Rvjaobr0PhCq-46" value="" style="endArrow=classic;html=1;rounded=0;fontSize=13;" edge="1" parent="1">
          <mxGeometry width="50" height="50" relative="1" as="geometry">
            <mxPoint x="352" y="1227.5" as="sourcePoint" />
            <mxPoint x="519" y="1228" as="targetPoint" />
          </mxGeometry>
        </mxCell>
        <mxCell id="hlDAkTI5Rvjaobr0PhCq-47" value="1. Login Request" style="text;html=1;strokeColor=none;fillColor=none;align=center;verticalAlign=middle;whiteSpace=wrap;rounded=0;fontSize=13;" vertex="1" parent="1">
          <mxGeometry x="367" y="1207" width="130" height="13" as="geometry" />
        </mxCell>
        <mxCell id="hlDAkTI5Rvjaobr0PhCq-49" value="Auth-Service" style="rounded=0;whiteSpace=wrap;html=1;fontSize=13;" vertex="1" parent="1">
          <mxGeometry x="680.5" y="1103" width="120" height="60" as="geometry" />
        </mxCell>
        <mxCell id="hlDAkTI5Rvjaobr0PhCq-50" value="Member-Service" style="rounded=0;whiteSpace=wrap;html=1;fontSize=13;" vertex="1" parent="1">
          <mxGeometry x="491" y="1103" width="120" height="60" as="geometry" />
        </mxCell>
        <mxCell id="hlDAkTI5Rvjaobr0PhCq-52" value="" style="endArrow=none;html=1;rounded=0;fontSize=13;startArrow=none;" edge="1" parent="1" source="hlDAkTI5Rvjaobr0PhCq-59">
          <mxGeometry width="50" height="50" relative="1" as="geometry">
            <mxPoint x="746.5" y="1646" as="sourcePoint" />
            <mxPoint x="739.5" y="1163" as="targetPoint" />
          </mxGeometry>
        </mxCell>
        <mxCell id="hlDAkTI5Rvjaobr0PhCq-53" value="" style="endArrow=none;html=1;rounded=0;fontSize=13;" edge="1" parent="1">
          <mxGeometry width="50" height="50" relative="1" as="geometry">
            <mxPoint x="557" y="1646" as="sourcePoint" />
            <mxPoint x="555" y="1163" as="targetPoint" />
          </mxGeometry>
        </mxCell>
        <mxCell id="hlDAkTI5Rvjaobr0PhCq-58" value="Email and Password" style="text;html=1;strokeColor=none;fillColor=none;align=center;verticalAlign=middle;whiteSpace=wrap;rounded=0;fontSize=13;" vertex="1" parent="1">
          <mxGeometry x="328" y="1236" width="217" height="13" as="geometry" />
        </mxCell>
        <mxCell id="hlDAkTI5Rvjaobr0PhCq-62" value="Redis" style="ellipse;whiteSpace=wrap;html=1;aspect=fixed;fontSize=13;" vertex="1" parent="1">
          <mxGeometry x="893" y="1280" width="109" height="109" as="geometry" />
        </mxCell>
        <mxCell id="hlDAkTI5Rvjaobr0PhCq-72" value="" style="rounded=0;whiteSpace=wrap;html=1;fontSize=13;" vertex="1" parent="1">
          <mxGeometry x="548" y="1188" width="14" height="272" as="geometry" />
        </mxCell>
        <mxCell id="hlDAkTI5Rvjaobr0PhCq-74" value="" style="endArrow=classic;html=1;rounded=0;fontSize=13;" edge="1" parent="1">
          <mxGeometry width="50" height="50" relative="1" as="geometry">
            <mxPoint x="564" y="1291" as="sourcePoint" />
            <mxPoint x="731" y="1291.5" as="targetPoint" />
          </mxGeometry>
        </mxCell>
        <mxCell id="hlDAkTI5Rvjaobr0PhCq-60" value="&lt;font style=&quot;font-size: 11px;&quot;&gt;회원&lt;br&gt;정보&lt;br&gt;검증&lt;br&gt;&lt;/font&gt;" style="rounded=0;whiteSpace=wrap;html=1;fontSize=13;" vertex="1" parent="1">
          <mxGeometry x="535.5" y="1207" width="39" height="68" as="geometry" />
        </mxCell>
        <mxCell id="hlDAkTI5Rvjaobr0PhCq-59" value="" style="rounded=0;whiteSpace=wrap;html=1;fontSize=13;" vertex="1" parent="1">
          <mxGeometry x="733.5" y="1269" width="14" height="157" as="geometry" />
        </mxCell>
        <mxCell id="hlDAkTI5Rvjaobr0PhCq-76" value="" style="endArrow=none;html=1;rounded=0;fontSize=13;" edge="1" parent="1" target="hlDAkTI5Rvjaobr0PhCq-59">
          <mxGeometry width="50" height="50" relative="1" as="geometry">
            <mxPoint x="746.5" y="1646" as="sourcePoint" />
            <mxPoint x="739.5" y="1163" as="targetPoint" />
          </mxGeometry>
        </mxCell>
        <mxCell id="hlDAkTI5Rvjaobr0PhCq-77" value="2. 토큰 생성 요청" style="text;html=1;strokeColor=none;fillColor=none;align=center;verticalAlign=middle;whiteSpace=wrap;rounded=0;fontSize=13;" vertex="1" parent="1">
          <mxGeometry x="583" y="1273" width="130" height="13" as="geometry" />
        </mxCell>
        <mxCell id="hlDAkTI5Rvjaobr0PhCq-78" value="&lt;span style=&quot;font-size: 11px;&quot;&gt;Create&lt;br&gt;Tokens&lt;br&gt;&lt;/span&gt;" style="rounded=0;whiteSpace=wrap;html=1;fontSize=13;" vertex="1" parent="1">
          <mxGeometry x="721" y="1303" width="39" height="68" as="geometry" />
        </mxCell>
        <mxCell id="hlDAkTI5Rvjaobr0PhCq-79" value="" style="endArrow=classic;html=1;rounded=0;fontSize=13;" edge="1" parent="1">
          <mxGeometry width="50" height="50" relative="1" as="geometry">
            <mxPoint x="766" y="1338" as="sourcePoint" />
            <mxPoint x="890.5" y="1337.75" as="targetPoint" />
          </mxGeometry>
        </mxCell>
        <mxCell id="hlDAkTI5Rvjaobr0PhCq-80" value="3. 토큰 저장" style="text;html=1;strokeColor=none;fillColor=none;align=center;verticalAlign=middle;whiteSpace=wrap;rounded=0;fontSize=13;" vertex="1" parent="1">
          <mxGeometry x="760" y="1319" width="130" height="13" as="geometry" />
        </mxCell>
        <mxCell id="hlDAkTI5Rvjaobr0PhCq-82" value="" style="endArrow=classic;html=1;rounded=0;fontSize=13;" edge="1" parent="1">
          <mxGeometry width="50" height="50" relative="1" as="geometry">
            <mxPoint x="726" y="1399" as="sourcePoint" />
            <mxPoint x="570" y="1399" as="targetPoint" />
          </mxGeometry>
        </mxCell>
        <mxCell id="hlDAkTI5Rvjaobr0PhCq-83" value="3. 토큰 반환" style="text;html=1;strokeColor=none;fillColor=none;align=center;verticalAlign=middle;whiteSpace=wrap;rounded=0;fontSize=13;" vertex="1" parent="1">
          <mxGeometry x="585" y="1378" width="130" height="13" as="geometry" />
        </mxCell>
        <mxCell id="hlDAkTI5Rvjaobr0PhCq-84" value="" style="endArrow=classic;html=1;rounded=0;fontSize=13;" edge="1" parent="1">
          <mxGeometry width="50" height="50" relative="1" as="geometry">
            <mxPoint x="525" y="1438" as="sourcePoint" />
            <mxPoint x="352" y="1438" as="targetPoint" />
          </mxGeometry>
        </mxCell>
        <mxCell id="hlDAkTI5Rvjaobr0PhCq-89" value="4. Response" style="text;html=1;strokeColor=none;fillColor=none;align=center;verticalAlign=middle;whiteSpace=wrap;rounded=0;fontSize=13;" vertex="1" parent="1">
          <mxGeometry x="373.5" y="1419" width="130" height="13" as="geometry" />
        </mxCell>
        <mxCell id="hlDAkTI5Rvjaobr0PhCq-90" value="" style="endArrow=classic;html=1;rounded=0;fontSize=13;" edge="1" parent="1">
          <mxGeometry width="50" height="50" relative="1" as="geometry">
            <mxPoint x="654" y="659" as="sourcePoint" />
            <mxPoint x="957" y="659.5" as="targetPoint" />
          </mxGeometry>
        </mxCell>
        <mxCell id="hlDAkTI5Rvjaobr0PhCq-91" value="2-2) 갱신된 RefreshToken 저장" style="text;html=1;strokeColor=none;fillColor=none;align=center;verticalAlign=middle;whiteSpace=wrap;rounded=0;fontSize=13;" vertex="1" parent="1">
          <mxGeometry x="658" y="636.5" width="277" height="13" as="geometry" />
        </mxCell>
        <mxCell id="hlDAkTI5Rvjaobr0PhCq-93" value="" style="endArrow=classic;html=1;rounded=0;fontSize=13;" edge="1" parent="1">
          <mxGeometry width="50" height="50" relative="1" as="geometry">
            <mxPoint x="601" y="657.75" as="sourcePoint" />
            <mxPoint x="444" y="657.75" as="targetPoint" />
          </mxGeometry>
        </mxCell>
        <mxCell id="hlDAkTI5Rvjaobr0PhCq-94" value="2-a) 모든 토큰이 만료되었다면 EXPIRED 상태를 포함한 응답" style="text;html=1;strokeColor=none;fillColor=none;align=center;verticalAlign=middle;whiteSpace=wrap;rounded=0;fontSize=11;" vertex="1" parent="1">
          <mxGeometry x="427" y="627.25" width="186" height="13" as="geometry" />
        </mxCell>
        <mxCell id="hlDAkTI5Rvjaobr0PhCq-95" value="" style="endArrow=classic;html=1;rounded=0;fontSize=13;" edge="1" parent="1">
          <mxGeometry width="50" height="50" relative="1" as="geometry">
            <mxPoint x="396" y="660" as="sourcePoint" />
            <mxPoint x="223" y="660.5" as="targetPoint" />
          </mxGeometry>
        </mxCell>
        <mxCell id="hlDAkTI5Rvjaobr0PhCq-96" value="&lt;font style=&quot;font-size: 13px;&quot;&gt;2-b) 재 로그인 요청&lt;/font&gt;" style="text;html=1;strokeColor=none;fillColor=none;align=center;verticalAlign=middle;whiteSpace=wrap;rounded=0;fontSize=11;" vertex="1" parent="1">
          <mxGeometry x="217.5" y="640.25" width="186" height="13" as="geometry" />
        </mxCell>
      </root>
    </mxGraphModel>
  </diagram>
</mxfile>
